<?xml version="1.0" encoding="UTF-8"?>
<svg width="256" height="256" version="1.1" viewBox="0 0 67.733 67.733" xmlns="http://www.w3.org/2000/svg">
 <path d="m28.263 4.5805a29.772 29.772 0 0 0-22.3 28.799 29.772 29.772 0 0 0 29.773 29.773 29.772 29.772 0 0 0 28.838-22.445 28.602 28.602 0 0 1-9.2015 1.5405 28.602 28.602 0 0 1-28.602-28.602 28.602 28.602 0 0 1 1.4929-9.065z" style="fill:#728dbe;stroke-linecap:round;stroke-linejoin:round;stroke-width:2.326"/>
 <g transform="matrix(.42796 0 0 .42796 -25.759 3.3857)">
  <g transform="matrix(2.667,0,0,2.667,33.86,33.857)">
   <g transform="matrix(.96253 0 0 .96253 -68.69 9.8167)">
    <circle cx="102.12" cy="16.19" r="8.824" style="fill:#ccc;stroke-linecap:round;stroke-linejoin:round;stroke-width:1.1101"/>
    <rect x="84.559" y="13.805" width="21.768" height="11.209" rx="0" ry="5.6045" style="fill:#ccc;stroke-linecap:round;stroke-linejoin:round;stroke-width:.98524"/>
   </g>
  </g>
 </g>
</svg>
